PathFileType  4	(X/Y/Z) C:\Users\antoi\Documents\MyRepositories\mobilecap\ResultsAnalysis
DataRate	CameraRate	NumFrames	NumMarkers	Units	OrigDataRate	OrigDataStartFrame	OrigNumFrames
100.0	100.0	4	51	mm	100.0	196	261
Frame#	Time	r_knee			r_shank_antsup			r_ankle			r_calc			r_5meta			r_toe			L_knee			L_shank_antsup			L_ankle			L_calc			L_5meta			L_toe			r_sh2			r_sh3			r_sh4			L_sh2			L_sh3			r_thigh1			r_thigh2			r_thigh3			r_thigh4			r_thigh5			L_thigh1			L_thigh2			L_thigh3			L_thigh4			r.ASIS			r.PSIS			L.ASIS			L.PSIS			C7			R_Shoulder			L_Shoulder			R_Sternum			L_Sternum			R_humerus			R_elbow_med			R_elbow_lat			R_forearm			R_wrist_radius			R_wrist_ulna			L_humerus			L_elbow_med			L_elbow_lat			L_forearm			L_wrist_radius			L_wrist_ulna			R_HJC			L_HJC			R_HJC_reg			L_HJC_reg			
		X1	Y1	Z1	X2	Y2	Z2	X3	Y3	Z3	X4	Y4	Z4	X5	Y5	Z5	X6	Y6	Z6	X7	Y7	Z7	X8	Y8	Z8	X9	Y9	Z9	X10	Y10	Z10	X11	Y11	Z11	X12	Y12	Z12	X13	Y13	Z13	X14	Y14	Z14	X15	Y15	Z15	X16	Y16	Z16	X17	Y17	Z17	X18	Y18	Z18	X19	Y19	Z19	X20	Y20	Z20	X21	Y21	Z21	X22	Y22	Z22	X23	Y23	Z23	X24	Y24	Z24	X25	Y25	Z25	X26	Y26	Z26	X27	Y27	Z27	X28	Y28	Z28	X29	Y29	Z29	X30	Y30	Z30	X31	Y31	Z31	X32	Y32	Z32	X33	Y33	Z33	X34	Y34	Z34	X35	Y35	Z35	X36	Y36	Z36	X37	Y37	Z37	X38	Y38	Z38	X39	Y39	Z39	X40	Y40	Z40	X41	Y41	Z41	X42	Y42	Z42	X43	Y43	Z43	X44	Y44	Z44	X45	Y45	Z45	X46	Y46	Z46	X47	Y47	Z47	X48	Y48	Z48	X49	Y49	Z49	X50	Y50	Z50	X51	Y51	Z51	

196	1.95000000	-156.72362	480.15199	-375.09659	-185.87675	440.65997	-347.99582	-291.42435	104.39642	-409.03774	-360.58484	73.83497	-462.85903	-188.15008	38.04898	-366.68717	-140.06253	54.26057	-418.58027	-177.98078	490.78060	-765.78482	-167.83551	405.48515	-787.64657	-324.55844	117.75350	-788.00627	-398.26251	86.25638	-741.83686	-226.09563	39.08695	-820.33705	-174.94889	54.12140	-766.63094	-219.57761	329.39927	-349.05426	-116.33470	424.90188	-376.84480	-150.21955	316.59837	-392.48310	-247.13241	445.05066	-785.71811	-289.46494	330.70455	-799.97419	-179.63591	780.14477	-434.17536	-130.13639	682.32020	-414.72476	-149.46650	655.73527	-355.70627	-249.42461	758.88665	-348.42834	-203.24843	654.57550	-337.14986	-224.10570	805.81861	-727.53798	-191.32043	671.81572	-765.64920	-334.47716	775.77270	-732.63724	-297.50314	638.81641	-730.57499	-226.50839	916.08460	-406.21486	-398.36209	973.40543	-502.77796	-204.14261	908.09327	-642.89194	-389.02935	979.27328	-598.72334	-224.79846	1424.53937	-531.89197	-143.95260	1419.41824	-399.45274	-142.73792	1400.64173	-677.34260	-109.09437	1333.71035	-511.95608	-109.94337	1330.14700	-548.63371	-205.70453	1360.37528	-193.46278	-232.09093	1257.18051	-118.50893	-248.59140	1328.76636	-110.85359	-136.95911	1404.84218	-140.56609	-59.24973	1441.59879	-190.33259	-48.22634	1449.68586	-147.79571	-262.24298	1334.45655	-856.68726	-382.43002	1296.35293	-885.68606	-340.48290	1319.99614	-932.50204	-289.30890	1182.14596	-965.94970	-261.65121	1081.38213	-955.38746	-282.87410	1081.38658	-998.33323	-307.22826	845.00690	-450.90616	-297.69171	852.45150	-641.19268	-299.43678	843.56805	-450.57236	-284.26315	853.10847	-606.53316	
197	1.96000000	-169.78471	489.28207	-373.86309	-200.10671	448.50791	-346.74110	-291.42190	107.00292	-407.20515	-359.47028	78.43421	-460.97906	-187.71099	37.81024	-366.14673	-139.44176	53.95788	-418.11192	-187.65449	504.57076	-764.57092	-177.41675	420.10145	-786.99274	-322.31299	125.20092	-789.19867	-394.14996	97.18645	-742.77195	-224.87380	39.40766	-820.60046	-173.02715	53.48712	-767.35241	-229.89682	335.97417	-347.62302	-129.79189	435.13124	-374.92051	-159.30522	325.39844	-389.76230	-258.22225	456.66036	-785.91318	-295.59855	340.45017	-800.41556	-175.44602	791.16996	-432.49143	-131.98780	690.91215	-412.69636	-153.80437	665.07340	-354.19196	-248.07533	773.34177	-348.16168	-207.84944	666.84485	-336.30822	-216.71768	823.25229	-725.52795	-189.45248	688.21789	-763.92951	-328.16689	798.53158	-734.11826	-297.99656	659.60832	-732.09293	-219.90190	933.90749	-403.79706	-390.82221	989.76335	-502.43963	-195.33776	928.83333	-640.42250	-380.90181	997.74039	-598.53090	-229.66526	1446.61378	-529.53097	-147.86711	1446.53130	-400.47354	-145.85276	1427.57171	-673.10646	-111.21186	1359.09815	-510.17585	-112.40405	1355.23421	-546.63026	-213.77075	1396.89442	-195.62896	-241.56633	1296.91496	-115.25148	-258.95565	1368.82368	-111.13019	-147.48518	1443.33175	-145.10191	-68.77654	1476.54277	-196.27602	-59.15960	1488.11513	-154.26418	-266.62124	1366.92621	-851.81925	-388.45338	1335.64191	-878.04520	-346.84340	1356.18050	-925.54571	-301.16311	1216.47704	-958.43210	-277.60457	1113.78361	-946.82367	-298.53051	1114.71925	-990.00671	-299.41612	862.35494	-450.70434	-287.58451	872.05298	-640.76158	-290.84353	859.77589	-450.07489	-274.76948	872.69503	-605.75827	
198	1.97000000	-184.62124	500.02851	-373.24872	-216.30852	457.73810	-345.77790	-290.93123	111.38854	-404.49018	-357.74604	85.28238	-458.32899	-187.14910	37.60668	-365.62551	-138.54225	53.71479	-417.33924	-198.10964	520.84545	-764.17352	-187.48596	437.24021	-786.98325	-318.74458	135.08909	-790.00982	-388.11900	111.12369	-743.30104	-222.87918	40.60059	-820.97152	-170.38969	52.88388	-767.96855	-241.56226	344.19574	-346.28578	-145.17202	446.81568	-373.97679	-169.66652	335.54698	-387.58544	-269.79536	470.24924	-786.38989	-301.93359	352.42463	-800.65663	-171.39785	803.00821	-431.34128	-134.79985	699.78011	-412.22823	-158.49106	675.63005	-353.50152	-246.09653	789.12954	-348.28119	-212.52310	680.38427	-336.24994	-209.75838	842.10066	-723.81441	-187.61426	706.25077	-762.16281	-321.84352	822.41632	-735.46546	-298.22736	682.02269	-734.04091	-212.41383	952.66317	-401.68310	-382.79382	1007.14458	-501.18471	-187.03883	950.17241	-638.13853	-373.07678	1016.86806	-597.31898	-234.41466	1468.98501	-527.63044	-152.80165	1473.02340	-401.52176	-148.23360	1454.01277	-668.95926	-113.78571	1384.19365	-508.55906	-114.81350	1380.37934	-544.46523	-222.40639	1431.94591	-197.55386	-253.87311	1335.15489	-113.59060	-269.72814	1407.56877	-112.23527	-155.79599	1477.05415	-149.93559	-75.43198	1504.73406	-202.15867	-66.63009	1519.13925	-160.72582	-270.90983	1398.01051	-846.20100	-393.03924	1370.93742	-869.39835	-352.49740	1389.18798	-917.80665	-311.75000	1247.70854	-950.34990	-292.23451	1143.18998	-937.73027	-312.80986	1144.73341	-980.96963	-290.92565	880.65220	-449.97845	-278.08779	892.32848	-639.86071	-281.56834	877.29298	-449.02204	-265.86593	893.01106	-604.40796	
199	1.98000000	-201.31903	512.59062	-373.16633	-234.28079	468.47638	-345.24580	-289.83812	117.52670	-401.59253	-354.86953	94.77087	-455.45837	-186.36826	37.74268	-364.94146	-137.15030	53.62397	-416.11498	-209.05484	539.44965	-764.51204	-197.78863	456.40785	-787.03043	-312.33734	147.38188	-790.84369	-379.55042	128.32914	-743.55730	-220.02263	42.84150	-820.36454	-166.76490	53.09270	-768.37192	-254.11060	353.91287	-345.16353	-162.56982	460.36667	-373.72672	-181.20883	348.10347	-385.45541	-281.63278	485.26675	-787.15607	-307.80054	366.20512	-801.11257	-167.53628	815.13268	-431.46874	-138.53055	709.22080	-413.05393	-163.47555	687.23676	-353.74625	-243.34943	806.11973	-348.79346	-217.13588	695.33964	-336.75723	-203.00166	862.01222	-722.41522	-185.90913	725.36762	-760.20722	-315.54048	847.11197	-736.50215	-298.28894	705.56668	-735.93872	-203.78494	972.41739	-400.27883	-374.32529	1025.50885	-499.07457	-179.05160	972.58583	-636.49653	-365.72651	1036.48251	-595.32815	-238.87857	1491.48168	-526.19233	-158.15444	1498.43273	-402.24868	-150.11728	1479.37254	-665.40989	-113.86060	1409.38768	-507.20138	-116.31139	1405.95675	-542.00392	-231.10396	1464.32883	-199.64506	-268.40444	1370.54285	-113.77059	-280.31748	1443.58677	-114.79072	-162.28012	1505.52477	-154.23525	-79.95279	1526.10032	-206.99282	-71.19167	1542.39768	-165.74902	-275.04811	1426.66447	-840.98708	-397.42770	1400.73668	-861.52491	-357.67498	1417.59178	-910.71934	-320.91228	1274.61680	-942.41600	-304.82484	1168.80867	-928.49564	-325.11565	1170.62750	-971.91132	-281.39615	899.87839	-449.14638	-269.02766	913.50702	-638.93037	-271.36973	896.51505	-447.61693	-257.51751	914.20994	-602.75623	
